<?xml version="1.0" encoding="utf-8"?>
<!-- Generator: Adobe Illustrator 22.0.1, SVG Export Plug-In . SVG Version: 6.00 Build 0)  -->
<svg version="1.1" id="Layer_1" xmlns="http://www.w3.org/2000/svg" xmlns:xlink="http://www.w3.org/1999/xlink" x="0px" y="0px"
	 viewBox="0 0 500 500" style="enable-background:new 0 0 500 500;" xml:space="preserve">
<style type="text/css">
	.st0{fill:none;stroke:#FFFFFF;stroke-width:35;stroke-miterlimit:10;}
</style>
<path class="st0" d="M445.3,323.1c-0.9,2.1-4.8,11.8-12.5,31.3c-5.1,12.9-6.3,16.1-6.8,21.2c-1.1,11.5,2.9,19.3,7.9,31.8
	c10.9,27.3,17,42.7,12.6,46.7c-9,8.1-66.5-28-84.7-26c-3.8,0.4-7.2,1.1-7.2,1.1c-7.4,1.7-12.4,4.9-32.2,10.6
	c-27.8,8-57.5,14-74,15.5c-59.3,5.7-111.4-30.8-120.1-37C74.1,380.6,38.6,314.6,39.9,247C42,142.7,132.2,40.6,248.4,38.6
	c114.9-2,202.1,94.9,210.8,170.1C462.9,241.8,454.9,301.5,445.3,323.1z"/>
</svg>
