<?xml version="1.0" encoding="utf-8"?>
<!-- Generator: Adobe Illustrator 22.0.1, SVG Export Plug-In . SVG Version: 6.00 Build 0)  -->
<svg version="1.1" id="Layer_1" xmlns="http://www.w3.org/2000/svg" xmlns:xlink="http://www.w3.org/1999/xlink" x="0px" y="0px"
	 viewBox="0 0 500 500" style="enable-background:new 0 0 500 500;" xml:space="preserve">
<style type="text/css">
	.st0{fill:#FFFFFF;}
</style>
<path class="st0" d="M496,134.3C496,62.8,438,4.8,366.5,4.8H134.3C62.8,4.8,4.8,62.8,4.8,134.3v232.2C4.8,438,62.8,496,134.3,496
	h232.2C438,496,496,438,496,366.5L496,134.3L496,134.3z M454.6,346.7c0,59.1-47.9,107-107,107H156.1c-59.1,0-107-47.9-107-107V155.2
	c0-59.1,47.9-107,107-107h191.5c59.1,0,107,47.9,107,107V346.7z"/>
<circle class="st0" cx="366.8" cy="122.1" r="33.2"/>
<path class="st0" d="M252.9,140.8c-60.5,0-109.5,49-109.5,109.5s49,109.5,109.5,109.5s109.5-49,109.5-109.5S313.3,140.8,252.9,140.8
	z M252.9,319.7c-38.3,0-69.3-31-69.3-69.3s31-69.3,69.3-69.3s69.3,31,69.3,69.3S291.2,319.7,252.9,319.7z"/>
</svg>
