<?xml version="1.0" encoding="utf-8"?>
<!-- Generator: Adobe Illustrator 22.0.1, SVG Export Plug-In . SVG Version: 6.00 Build 0)  -->
<svg version="1.1" id="Layer_1" xmlns="http://www.w3.org/2000/svg" xmlns:xlink="http://www.w3.org/1999/xlink" x="0px" y="0px"
	 viewBox="0 0 500 500" style="enable-background:new 0 0 500 500;" xml:space="preserve">
<style type="text/css">
	.st0{fill:none;stroke:#FFFFFF;stroke-width:41;stroke-miterlimit:10;}
</style>
<path class="st0" d="M416.7,65.6c-28.8-20.3-71-27.1-108.7-12.5c-33.5,12.9-51.5,38.1-58,48.5c-6.5-10.4-24.5-35.5-58-48.5
	c-37.7-14.5-79.9-7.8-108.7,12.5c-54.1,38.1-53.1,118.2-41.8,163C52,270.1,80.1,300.6,136,359.9c44.3,47,84.3,82.8,112.9,107
	c0.8,0,1.5,0,2.3,0c28.6-24.2,68.6-60,112.9-107c55.9-59.3,84-89.8,94.5-131.3C469.8,183.8,470.8,103.8,416.7,65.6z"/>
</svg>
